<svg width="45" height="89" viewBox="0 0 45 89" fill="none" xmlns="http://www.w3.org/2000/svg">
<path d="M22.9601 0.0477295H22.0601V13.4877H22.9601V0.0477295Z" fill="#231F20"/>
<path d="M22.9601 75.3877H22.0601V88.8277H22.9601V75.3877Z" fill="#231F20"/>
<path d="M30.1305 1.19775H29.2305V18.1278H30.1305V1.19775Z" fill="#231F20"/>
<path d="M30.1305 70.8677H29.2305V87.7977H30.1305V70.8677Z" fill="#231F20"/>
<path d="M26.5401 0.497742H25.6401V14.7477H26.5401V0.497742Z" fill="#231F20"/>
<path d="M26.5401 74.2677H25.6401V88.5177H26.5401V74.2677Z" fill="#231F20"/>
<path d="M15.7804 1.19775H14.8804V18.1278H15.7804V1.19775Z" fill="#231F20"/>
<path d="M15.7804 70.8677H14.8804V87.7977H15.7804V70.8677Z" fill="#231F20"/>
<path d="M19.3702 0.497742H18.4702V14.7477H19.3702V0.497742Z" fill="#231F20"/>
<path d="M19.3702 74.2677H18.4702V88.5177H19.3702V74.2677Z" fill="#231F20"/>
<path d="M44.4801 15.5577H43.5801V73.3077H44.4801V15.5577Z" fill="#231F20"/>
<path d="M33.7203 2.29773H32.8203V86.5777H33.7203V2.29773Z" fill="#231F20"/>
<path d="M37.3004 4.57776H36.4004V84.2978H37.3004V4.57776Z" fill="#231F20"/>
<path d="M40.8903 9.09778H39.9902V79.7678H40.8903V9.09778Z" fill="#231F20"/>
<path d="M1.43027 15.5577H0.530273V73.3077H1.43027V15.5577Z" fill="#231F20"/>
<path d="M12.2003 2.29773H11.3003V86.5777H12.2003V2.29773Z" fill="#231F20"/>
<path d="M8.61044 4.57776H7.71045V84.2978H8.61044V4.57776Z" fill="#231F20"/>
<path d="M5.02013 9.09778H4.12012V79.7678H5.02013V9.09778Z" fill="#231F20"/>
</svg>
