<svg width="41" height="87" viewBox="0 0 41 87" fill="none" xmlns="http://www.w3.org/2000/svg">
<path d="M26.3097 0.197754H25.4097V86.6678H26.3097V0.197754Z" fill="#231F20"/>
<path d="M22.7198 0.197754H21.8198V86.6678H22.7198V0.197754Z" fill="#231F20"/>
<path d="M19.1398 0.197754H18.2397V86.6678H19.1398V0.197754Z" fill="#231F20"/>
<path d="M15.5499 0.197754H14.6499V86.6678H15.5499V0.197754Z" fill="#231F20"/>
<path d="M11.9596 73.4078H11.0596V86.6678H11.9596V73.4078Z" fill="#231F20"/>
<path d="M8.37997 73.4078H7.47998V86.6678H8.37997V73.4078Z" fill="#231F20"/>
<path d="M4.78964 73.4078H3.88965V86.6678H4.78964V73.4078Z" fill="#231F20"/>
<path d="M1.19983 73.4078H0.299805V86.6678H1.19983V73.4078Z" fill="#231F20"/>
<path d="M11.9596 0.197754H11.0596V13.4578H11.9596V0.197754Z" fill="#231F20"/>
<path d="M8.37997 0.197754H7.47998V13.4578H8.37997V0.197754Z" fill="#231F20"/>
<path d="M4.78964 0.197754H3.88965V13.4578H4.78964V0.197754Z" fill="#231F20"/>
<path d="M40.6598 73.4078H39.7598V86.6678H40.6598V73.4078Z" fill="#231F20"/>
<path d="M37.0699 73.4078H36.1699V86.6678H37.0699V73.4078Z" fill="#231F20"/>
<path d="M33.4898 73.4078H32.5898V86.6678H33.4898V73.4078Z" fill="#231F20"/>
<path d="M29.9 73.4078H29V86.6678H29.9V73.4078Z" fill="#231F20"/>
</svg>
