<svg width="45" height="88" viewBox="0 0 45 88" fill="none" xmlns="http://www.w3.org/2000/svg">
<path d="M22.9098 0.0477295H22.0098V13.4877H22.9098V0.0477295Z" fill="#231F20"/>
<path d="M30.0802 1.19775H29.1802V18.1278H30.0802V1.19775Z" fill="#231F20"/>
<path d="M26.4898 0.497742H25.5898V14.7477H26.4898V0.497742Z" fill="#231F20"/>
<path d="M15.7301 1.19775H14.8301V18.1278H15.7301V1.19775Z" fill="#231F20"/>
<path d="M19.3199 0.497742H18.4199V14.7477H19.3199V0.497742Z" fill="#231F20"/>
<path d="M44.4297 15.5577H43.5298V36.5277H44.4297V15.5577Z" fill="#231F20"/>
<path d="M33.67 2.29773H32.77V50.7677H33.67V2.29773Z" fill="#231F20"/>
<path d="M37.2501 4.57776H36.3501V47.5078H37.2501V4.57776Z" fill="#231F20"/>
<path d="M40.8399 9.09778H39.9399V42.9778H40.8399V9.09778Z" fill="#231F20"/>
<path d="M1.37997 15.5577H0.47998V28.9377H1.37997V15.5577Z" fill="#231F20"/>
<path d="M12.1398 2.29773H11.2397V28.9477H12.1398V2.29773Z" fill="#231F20"/>
<path d="M8.56015 4.57776H7.66016V28.9378H8.56015V4.57776Z" fill="#231F20"/>
<path d="M4.96982 9.09778H4.06982V28.9378H4.96982V9.09778Z" fill="#231F20"/>
<path d="M44.4297 74.4077H43.5298V87.6677H44.4297V74.4077Z" fill="#231F20"/>
<path d="M40.8399 74.4077H39.9399V87.6677H40.8399V74.4077Z" fill="#231F20"/>
<path d="M37.2501 74.4077H36.3501V87.6677H37.2501V74.4077Z" fill="#231F20"/>
<path d="M33.67 74.4077H32.77V87.6677H33.67V74.4077Z" fill="#231F20"/>
<path d="M30.0802 74.4077H29.1802V87.6677H30.0802V74.4077Z" fill="#231F20"/>
<path d="M26.4898 74.4077H25.5898V87.6677H26.4898V74.4077Z" fill="#231F20"/>
<path d="M22.9098 74.4077H22.0098V87.6677H22.9098V74.4077Z" fill="#231F20"/>
<path d="M19.3199 74.4077H18.4199V87.6677H19.3199V74.4077Z" fill="#231F20"/>
<path d="M15.7301 74.4077H14.8301V87.6677H15.7301V74.4077Z" fill="#231F20"/>
<path d="M12.1398 49.9878H11.2397V87.6678H12.1398V49.9878Z" fill="#231F20"/>
<path d="M15.7301 47.1377H14.8301V67.1377H15.7301V47.1377Z" fill="#231F20"/>
<path d="M19.3199 44.2577H18.4199V61.8977H19.3199V44.2577Z" fill="#231F20"/>
<path d="M22.9098 41.5978H22.0098V58.7178H22.9098V41.5978Z" fill="#231F20"/>
<path d="M26.4898 37.6877H25.5898V55.9878H26.4898V37.6877Z" fill="#231F20"/>
<path d="M30.0802 31.8478H29.1802V53.1378H30.0802V31.8478Z" fill="#231F20"/>
<path d="M8.56015 53.0677H7.66016V87.6678H8.56015V53.0677Z" fill="#231F20"/>
<path d="M4.96982 57.5077H4.06982V87.6777H4.96982V57.5077Z" fill="#231F20"/>
<path d="M1.37997 65.4377H0.47998V87.6678H1.37997V65.4377Z" fill="#231F20"/>
</svg>
