<svg width="45" height="89" viewBox="0 0 45 89" fill="none" xmlns="http://www.w3.org/2000/svg">
<path d="M22.88 0.0477295H21.98V13.4877H22.88V0.0477295Z" fill="#231F20"/>
<path d="M30.0499 0.987732H29.1499V17.9177H30.0499V0.987732Z" fill="#231F20"/>
<path d="M26.4698 0.28772H25.5698V14.5377H26.4698V0.28772Z" fill="#231F20"/>
<path d="M15.7101 0.987732H14.8101V17.9177H15.7101V0.987732Z" fill="#231F20"/>
<path d="M19.2901 0.28772H18.3901V14.5377H19.2901V0.28772Z" fill="#231F20"/>
<path d="M44.4 14.5277H43.5V35.4977H44.4V14.5277Z" fill="#231F20"/>
<path d="M33.6398 2.05774H32.7397V50.7677H33.6398V2.05774Z" fill="#231F20"/>
<path d="M37.23 4.33777H36.3301V47.5078H37.23V4.33777Z" fill="#231F20"/>
<path d="M40.8102 7.90771H39.9102V40.7677H40.8102V7.90771Z" fill="#231F20"/>
<path d="M1.35992 15.3177H0.459961V28.6977H1.35992V15.3177Z" fill="#231F20"/>
<path d="M12.1198 2.04773H11.2197V28.6977H12.1198V2.04773Z" fill="#231F20"/>
<path d="M8.52991 4.33777H7.62988V28.6978H8.52991V4.33777Z" fill="#231F20"/>
<path d="M4.94006 7.91772H4.04004V28.6977H4.94006V7.91772Z" fill="#231F20"/>
<path d="M22.88 75.5377H21.98V88.8277H22.88V75.5377Z" fill="#231F20"/>
<path d="M30.0499 71.7078H29.1499V87.9278H30.0499V71.7078Z" fill="#231F20"/>
<path d="M26.4698 74.5077H25.5698V88.5177H26.4698V74.5077Z" fill="#231F20"/>
<path d="M15.7101 71.7078H14.8101V87.9278H15.7101V71.7078Z" fill="#231F20"/>
<path d="M19.2901 74.5077H18.3901V88.5177H19.2901V74.5077Z" fill="#231F20"/>
<path d="M44.4 50.6277H43.5V75.9577H44.4V50.6277Z" fill="#231F20"/>
<path d="M33.6398 38.1077H32.7397V86.9577H33.6398V38.1077Z" fill="#231F20"/>
<path d="M37.23 41.3577H36.3301V84.9677H37.23V41.3577Z" fill="#231F20"/>
<path d="M40.8102 45.2377H39.9102V81.8777H40.8102V45.2377Z" fill="#231F20"/>
<path d="M1.35992 60.1078H0.459961V76.3278H1.35992V60.1078Z" fill="#231F20"/>
<path d="M12.1198 60.1078H11.2197V86.8578H12.1198V60.1078Z" fill="#231F20"/>
<path d="M8.52991 60.1078H7.62988V85.0378H8.52991V60.1078Z" fill="#231F20"/>
<path d="M4.94006 60.1078H4.04004V81.8378H4.94006V60.1078Z" fill="#231F20"/>
<path d="M15.7101 36.4578H14.8101V49.8578H15.7101V36.4578Z" fill="#231F20"/>
<path d="M19.2901 36.4578H18.3901V49.8578H19.2901V36.4578Z" fill="#231F20"/>
<path d="M22.88 36.4578H21.98V49.8578H22.88V36.4578Z" fill="#231F20"/>
<path d="M26.4698 36.1377H25.5698V50.1677H26.4698V36.1377Z" fill="#231F20"/>
<path d="M30.0499 32.9877H29.1499V53.3277H30.0499V32.9877Z" fill="#231F20"/>
</svg>
