<svg width="48" height="87" viewBox="0 0 48 87" fill="none" xmlns="http://www.w3.org/2000/svg">
<path d="M44.2298 57.0977H43.3398V70.4777H44.2298V57.0977Z" fill="#231F20"/>
<path d="M47.8099 57.0977H46.9199V70.4777H47.8099V57.0977Z" fill="#231F20"/>
<path d="M26.2903 57.0977H25.4004V70.4777H26.2903V57.0977Z" fill="#231F20"/>
<path d="M22.7001 57.0977H21.8101V70.4777H22.7001V57.0977Z" fill="#231F20"/>
<path d="M19.13 57.0977H18.23V70.4777H19.13V57.0977Z" fill="#231F20"/>
<path d="M15.5401 57.0977H14.6401V70.4777H15.5401V57.0977Z" fill="#231F20"/>
<path d="M29.8903 39.5376H28.9902V86.8076H29.8903V39.5376Z" fill="#231F20"/>
<path d="M33.4703 39.5376H32.5703V86.8076H33.4703V39.5376Z" fill="#231F20"/>
<path d="M37.0602 39.5376H36.1602V86.8076H37.0602V39.5376Z" fill="#231F20"/>
<path d="M40.65 39.5376H39.75V86.8076H40.65V39.5376Z" fill="#231F20"/>
<path d="M4.77991 39.1477H3.87988V70.4777H4.77991V39.1477Z" fill="#231F20"/>
<path d="M8.36975 27.2676H7.46973V70.4676H8.36975V27.2676Z" fill="#231F20"/>
<path d="M22.7001 0.337646H21.8101V24.2877H22.7001V0.337646Z" fill="#231F20"/>
<path d="M19.13 0.337646H18.23V39.1476H19.13V0.337646Z" fill="#231F20"/>
<path d="M15.5401 0.337646H14.6401V53.6876H15.5401V0.337646Z" fill="#231F20"/>
<path d="M1.19006 57.9877H0.290039V70.4777H1.19006V57.9877Z" fill="#231F20"/>
<path d="M26.2903 0.337646H25.4004V12.4077H26.2903V0.337646Z" fill="#231F20"/>
<path d="M11.9498 13.7076H11.0498V70.4777H11.9498V13.7076Z" fill="#231F20"/>
</svg>
