<svg width="41" height="88" viewBox="0 0 41 88" fill="none" xmlns="http://www.w3.org/2000/svg">
<path d="M22.8297 0.197754H21.9297V13.5278H22.8297V0.197754Z" fill="#231F20"/>
<path d="M29.9996 0.197754H29.0996V13.5278H29.9996V0.197754Z" fill="#231F20"/>
<path d="M26.4097 0.197754H25.5098V13.5278H26.4097V0.197754Z" fill="#231F20"/>
<path d="M15.65 0.197754H14.75V13.5278H15.65V0.197754Z" fill="#231F20"/>
<path d="M19.2398 0.197754H18.3398V13.5278H19.2398V0.197754Z" fill="#231F20"/>
<path d="M33.59 0.197754H32.6899V13.5278H33.59V0.197754Z" fill="#231F20"/>
<path d="M37.17 0.197754H36.27V13.5278H37.17V0.197754Z" fill="#231F20"/>
<path d="M40.7599 0.197754H39.8599V13.5278H40.7599V0.197754Z" fill="#231F20"/>
<path d="M1.29987 0.197754H0.399902V51.5677H1.29987V0.197754Z" fill="#231F20"/>
<path d="M12.0699 0.197754H11.1699V51.5677H12.0699V0.197754Z" fill="#231F20"/>
<path d="M8.48004 0.197754H7.58008V51.5677H8.48004V0.197754Z" fill="#231F20"/>
<path d="M4.88977 0.197754H3.98975V51.5677H4.88977V0.197754Z" fill="#231F20"/>
<path d="M22.8297 74.5378H21.9297V87.8278H22.8297V74.5378Z" fill="#231F20"/>
<path d="M29.9996 70.7078H29.0996V86.9278H29.9996V70.7078Z" fill="#231F20"/>
<path d="M26.4097 73.5078H25.5098V87.5178H26.4097V73.5078Z" fill="#231F20"/>
<path d="M15.65 70.7078H14.75V86.9278H15.65V70.7078Z" fill="#231F20"/>
<path d="M19.2398 73.5078H18.3398V87.5178H19.2398V73.5078Z" fill="#231F20"/>
<path d="M33.59 29.3077H32.6899V85.9577H33.59V29.3077Z" fill="#231F20"/>
<path d="M37.17 30.8678H36.27V83.9778H37.17V30.8678Z" fill="#231F20"/>
<path d="M40.7599 33.6978H39.8599V80.8777H40.7599V33.6978Z" fill="#231F20"/>
<path d="M1.29987 60.4977H0.399902V75.3278H1.29987V60.4977Z" fill="#231F20"/>
<path d="M12.0699 60.4977H11.1699V85.8578H12.0699V60.4977Z" fill="#231F20"/>
<path d="M8.48004 60.4977H7.58008V84.0478H8.48004V60.4977Z" fill="#231F20"/>
<path d="M4.87976 60.4977H3.98975V80.8378H4.87976V60.4977Z" fill="#231F20"/>
<path d="M15.65 32.9277H14.75V45.4177H15.65V32.9277Z" fill="#231F20"/>
<path d="M19.2398 29.7778H18.3398V42.5778H19.2398V29.7778Z" fill="#231F20"/>
<path d="M22.8297 28.5278H21.9297V41.5978H22.8297V28.5278Z" fill="#231F20"/>
<path d="M26.4097 28.2178H25.5098V41.9878H26.4097V28.2178Z" fill="#231F20"/>
<path d="M29.9996 28.4177H29.0996V45.7477H29.9996V28.4177Z" fill="#231F20"/>
</svg>
