<svg width="45" height="90" viewBox="0 0 45 90" fill="none" xmlns="http://www.w3.org/2000/svg">
<path d="M23.0099 76.0177H22.1099V89.4577H23.0099V76.0177Z" fill="#231F20"/>
<path d="M15.8297 71.5777H14.9297V88.5077H15.8297V71.5777Z" fill="#231F20"/>
<path d="M19.42 74.9677H18.52V89.2177H19.42V74.9677Z" fill="#231F20"/>
<path d="M30.1798 71.5777H29.2798V88.5077H30.1798V71.5777Z" fill="#231F20"/>
<path d="M26.5997 74.9677H25.6997V89.2177H26.5997V74.9677Z" fill="#231F20"/>
<path d="M12.2496 38.7377H11.3496V87.4477H12.2496V38.7377Z" fill="#231F20"/>
<path d="M8.65977 41.9977H7.75977V85.1677H8.65977V41.9977Z" fill="#231F20"/>
<path d="M44.5299 47.2977H43.6299V74.1777H44.5299V47.2977Z" fill="#231F20"/>
<path d="M33.7696 35.6077H32.8696V87.4477H33.7696V35.6077Z" fill="#231F20"/>
<path d="M37.36 37.5477H36.46V85.1677H37.36V37.5477Z" fill="#231F20"/>
<path d="M40.94 40.6177H40.04V81.5977H40.94V40.6177Z" fill="#231F20"/>
<path d="M23.0099 0.677734H22.1099V13.9677H23.0099V0.677734Z" fill="#231F20"/>
<path d="M15.8297 1.56769H14.9297V17.7877H15.8297V1.56769Z" fill="#231F20"/>
<path d="M19.42 0.977722H18.52V14.9877H19.42V0.977722Z" fill="#231F20"/>
<path d="M30.1798 1.56769H29.2798V17.7877H30.1798V1.56769Z" fill="#231F20"/>
<path d="M26.5997 0.977722H25.6997V14.9877H26.5997V0.977722Z" fill="#231F20"/>
<path d="M1.48984 15.8477H0.589844V74.9677H1.48984V15.8477Z" fill="#231F20"/>
<path d="M12.2496 2.54773H11.3496V51.3977H12.2496V2.54773Z" fill="#231F20"/>
<path d="M8.65977 4.52771H7.75977V48.1377H8.65977V4.52771Z" fill="#231F20"/>
<path d="M5.06992 8.08771H4.16992V81.5877H5.06992V8.08771Z" fill="#231F20"/>
<path d="M44.5299 13.1677H43.6299V28.1877H44.5299V13.1677Z" fill="#231F20"/>
<path d="M33.7696 2.6377H32.8696V28.1877H33.7696V2.6377Z" fill="#231F20"/>
<path d="M37.36 4.4577H36.46V28.1877H37.36V4.4577Z" fill="#231F20"/>
<path d="M40.94 7.65771H40.04V28.1877H40.94V7.65771Z" fill="#231F20"/>
<path d="M30.1798 34.7377H29.2798V51.0377H30.1798V34.7377Z" fill="#231F20"/>
<path d="M26.5997 34.3977H25.6997V48.1377H26.5997V34.3977Z" fill="#231F20"/>
<path d="M23.0099 34.6577H22.1099V47.5577H23.0099V34.6577Z" fill="#231F20"/>
<path d="M19.42 35.6077H18.52V49.6377H19.42V35.6077Z" fill="#231F20"/>
<path d="M15.8297 37.9177H14.9297V54.0277H15.8297V37.9177Z" fill="#231F20"/>
</svg>
