<svg width="41" height="88" viewBox="0 0 41 88" fill="none" xmlns="http://www.w3.org/2000/svg">
<path d="M19.19 0.827637H18.29V14.2076H19.19V0.827637Z" fill="#231F20"/>
<path d="M22.7799 0.827637H21.8799V14.2076H22.7799V0.827637Z" fill="#231F20"/>
<path d="M26.36 0.827637H25.46V14.2076H26.36V0.827637Z" fill="#231F20"/>
<path d="M1.2501 0.827637H0.350098V14.2076H1.2501V0.827637Z" fill="#231F20"/>
<path d="M4.83994 0.827637H3.93994V14.2076H4.83994V0.827637Z" fill="#231F20"/>
<path d="M8.43027 0.827637H7.53027V14.2076H8.43027V0.827637Z" fill="#231F20"/>
<path d="M12.0099 0.827637H11.1099V14.2076H12.0099V0.827637Z" fill="#231F20"/>
<path d="M15.6002 0.827637H14.7002V14.2076H15.6002V0.827637Z" fill="#231F20"/>
<path d="M19.19 40.1176H18.29V87.4077H19.19V40.1176Z" fill="#231F20"/>
<path d="M22.7799 27.7776H21.8799V77.8477H22.7799V27.7776Z" fill="#231F20"/>
<path d="M12.0099 64.0977H11.1099V87.2977H12.0099V64.0977Z" fill="#231F20"/>
<path d="M37.1202 0.827637H36.2202V29.6276H37.1202V0.827637Z" fill="#231F20"/>
<path d="M33.5401 0.827637H32.6401V41.8676H33.5401V0.827637Z" fill="#231F20"/>
<path d="M29.9503 0.827637H29.0503V53.8577H29.9503V0.827637Z" fill="#231F20"/>
<path d="M15.6002 52.0176H14.7002V87.3076H15.6002V52.0176Z" fill="#231F20"/>
<path d="M40.7101 0.827637H39.8101V14.2076H40.7101V0.827637Z" fill="#231F20"/>
<path d="M26.36 17.3276H25.46V65.7177H26.36V17.3276Z" fill="#231F20"/>
<path d="M8.43027 76.3076H7.53027V87.2977H8.43027V76.3076Z" fill="#231F20"/>
</svg>
