<svg width="45" height="90" viewBox="0 0 45 90" fill="none" xmlns="http://www.w3.org/2000/svg">
<path d="M22.9601 0.677734H22.0601V14.1177H22.9601V0.677734Z" fill="#231F20"/>
<path d="M30.1305 1.61768H29.2305V18.5477H30.1305V1.61768Z" fill="#231F20"/>
<path d="M26.5401 0.917725H25.6401V15.1677H26.5401V0.917725Z" fill="#231F20"/>
<path d="M15.7804 1.61768H14.8804V18.5477H15.7804V1.61768Z" fill="#231F20"/>
<path d="M19.3702 0.917725H18.4702V15.1677H19.3702V0.917725Z" fill="#231F20"/>
<path d="M44.4801 14.4477H43.5801V35.4177H44.4801V14.4477Z" fill="#231F20"/>
<path d="M33.7203 2.68768H32.8203V51.3977H33.7203V2.68768Z" fill="#231F20"/>
<path d="M37.3004 4.96771H36.4004V48.1377H37.3004V4.96771Z" fill="#231F20"/>
<path d="M40.8903 7.8277H39.9902V40.6877H40.8903V7.8277Z" fill="#231F20"/>
<path d="M22.9601 76.3777H22.0601V89.4577H22.9601V76.3777Z" fill="#231F20"/>
<path d="M30.1305 72.3377H29.2305V88.5677H30.1305V72.3377Z" fill="#231F20"/>
<path d="M26.5401 75.5277H25.6401V89.1477H26.5401V75.5277Z" fill="#231F20"/>
<path d="M15.7804 72.3377H14.8804V88.5677H15.7804V72.3377Z" fill="#231F20"/>
<path d="M19.3702 75.5277H18.4702V89.1477H19.3702V75.5277Z" fill="#231F20"/>
<path d="M44.4801 51.2577H43.5801V77.4977H44.4801V51.2577Z" fill="#231F20"/>
<path d="M33.7203 38.7377H32.8203V87.5877H33.7203V38.7377Z" fill="#231F20"/>
<path d="M37.3004 41.9877H36.4004V85.5977H37.3004V41.9877Z" fill="#231F20"/>
<path d="M40.8903 45.8677H39.9902V82.5077H40.8903V45.8677Z" fill="#231F20"/>
<path d="M1.43027 14.4477H0.530273V35.4177H1.43027V14.4477Z" fill="#231F20"/>
<path d="M12.2003 2.68768H11.3003V51.3977H12.2003V2.68768Z" fill="#231F20"/>
<path d="M8.61044 4.96771H7.71045V48.1377H8.61044V4.96771Z" fill="#231F20"/>
<path d="M5.02013 7.8277H4.12012V40.6877H5.02013V7.8277Z" fill="#231F20"/>
<path d="M1.43027 51.2577H0.530273V77.4977H1.43027V51.2577Z" fill="#231F20"/>
<path d="M12.2003 38.7377H11.3003V87.5877H12.2003V38.7377Z" fill="#231F20"/>
<path d="M8.61044 41.9877H7.71045V85.5977H8.61044V41.9877Z" fill="#231F20"/>
<path d="M5.02013 45.8677H4.12012V82.5077H5.02013V45.8677Z" fill="#231F20"/>
<path d="M22.9601 37.5177H22.0601V50.4877H22.9601V37.5177Z" fill="#231F20"/>
<path d="M26.5401 36.7777H25.6401V50.7977H26.5401V36.7777Z" fill="#231F20"/>
<path d="M30.1305 33.6177H29.2305V53.9577H30.1305V33.6177Z" fill="#231F20"/>
<path d="M19.3702 36.7777H18.4702V50.7977H19.3702V36.7777Z" fill="#231F20"/>
<path d="M15.7804 33.6177H14.8804V53.9577H15.7804V33.6177Z" fill="#231F20"/>
</svg>
