<svg width="45" height="90" viewBox="0 0 45 90" fill="none" xmlns="http://www.w3.org/2000/svg">
<path d="M22.9298 0.677734H22.0298V14.1177H22.9298V0.677734Z" fill="#231F20"/>
<path d="M30.11 1.61768H29.21V18.5477H30.11V1.61768Z" fill="#231F20"/>
<path d="M26.5196 0.917725H25.6196V15.1677H26.5196V0.917725Z" fill="#231F20"/>
<path d="M15.7599 1.61768H14.8599V18.5477H15.7599V1.61768Z" fill="#231F20"/>
<path d="M19.3399 0.917725H18.4399V15.1677H19.3399V0.917725Z" fill="#231F20"/>
<path d="M33.6895 2.68768H32.7896V51.3977H33.6895V2.68768Z" fill="#231F20"/>
<path d="M37.2799 4.96771H36.3799V48.1377H37.2799V4.96771Z" fill="#231F20"/>
<path d="M1.40976 15.9477H0.509766V42.8277H1.40976V15.9477Z" fill="#231F20"/>
<path d="M12.1696 2.68768H11.2695V54.5277H12.1696V2.68768Z" fill="#231F20"/>
<path d="M8.57968 4.96771H7.67969V52.5977H8.57968V4.96771Z" fill="#231F20"/>
<path d="M4.9996 8.54773H4.09961V49.5277H4.9996V8.54773Z" fill="#231F20"/>
<path d="M22.9298 76.1677H22.0298V89.4577H22.9298V76.1677Z" fill="#231F20"/>
<path d="M30.11 72.3377H29.21V88.5677H30.11V72.3377Z" fill="#231F20"/>
<path d="M26.5196 75.1477H25.6196V89.1577H26.5196V75.1477Z" fill="#231F20"/>
<path d="M15.7599 72.3377H14.8599V88.5677H15.7599V72.3377Z" fill="#231F20"/>
<path d="M19.3399 75.1477H18.4399V89.1577H19.3399V75.1477Z" fill="#231F20"/>
<path d="M44.4498 15.1677H43.5498V74.2877H44.4498V15.1677Z" fill="#231F20"/>
<path d="M33.6895 38.7377H32.7896V87.5877H33.6895V38.7377Z" fill="#231F20"/>
<path d="M37.2799 41.9877H36.3799V85.5977H37.2799V41.9877Z" fill="#231F20"/>
<path d="M40.8597 8.54773H39.9697V82.0477H40.8597V8.54773Z" fill="#231F20"/>
<path d="M1.40976 61.9477H0.509766V76.9577H1.40976V61.9477Z" fill="#231F20"/>
<path d="M12.1696 61.9477H11.2695V87.4977H12.1696V61.9477Z" fill="#231F20"/>
<path d="M8.57968 61.9477H7.67969V85.6777H8.57968V61.9477Z" fill="#231F20"/>
<path d="M4.9996 61.9477H4.09961V82.4777H4.9996V61.9477Z" fill="#231F20"/>
<path d="M15.7599 39.0877H14.8599V55.3877H15.7599V39.0877Z" fill="#231F20"/>
<path d="M19.3399 41.9877H18.4399V55.7277H19.3399V41.9877Z" fill="#231F20"/>
<path d="M22.9298 42.5777H22.0298V55.4777H22.9298V42.5777Z" fill="#231F20"/>
<path d="M26.5196 40.4977H25.6196V54.5277H26.5196V40.4977Z" fill="#231F20"/>
<path d="M30.11 36.1077H29.21V52.2177H30.11V36.1077Z" fill="#231F20"/>
</svg>
